<?xml version="1.0" encoding="UTF-8"?>
<svg version="1.1" xmlns="http://www.w3.org/2000/svg" width="500" height="500">
<path d="M0 0 C165 0 330 0 500 0 C500 165 500 330 500 500 C335 500 170 500 0 500 C0 335 0 170 0 0 Z " fill="#FEFEFE" transform="translate(0,0)"/>
<path d="M0 0 C1.2370166 0.00644531 2.4740332 0.01289062 3.74853516 0.01953125 C13.16191257 0.20772451 20.72183389 1.28232172 29.25 5.5 C30.40886719 6.05816406 31.56773437 6.61632812 32.76171875 7.19140625 C40.68234017 11.25231527 47.19595029 16.59043851 53.8125 22.48828125 C57.02885009 25.34614988 60.37562729 27.97681539 63.8125 30.5625 C68.79016996 34.32245348 73.5674458 38.26262886 78.30273438 42.32226562 C82.22852917 45.67309407 86.24070673 48.89119947 90.3125 52.0625 C92.0581651 53.43029247 93.80310805 54.79900098 95.54785156 56.16796875 C96.66984139 57.04599177 97.79414445 57.92106794 98.92089844 58.79296875 C110.88916494 68.09287697 118.74723314 78.22367774 121.25 93.5 C121.90525357 102.29551914 121.80771975 112.0005309 116.125 119.1875 C112.09723503 121.02626227 108.59673384 121.44494214 104.25 120.5 C101.25 118.0625 101.25 118.0625 99.25 115.5 C98.92 115.17 98.59 114.84 98.25 114.5 C98.19951567 113.09204823 98.21433754 111.68162313 98.2578125 110.2734375 C98.28294922 108.97212891 98.28294922 108.97212891 98.30859375 107.64453125 C98.35230788 105.82139469 98.40417663 103.99843244 98.46484375 102.17578125 C98.598283 93.93894015 96.30257853 88.08528313 91.25 81.5 C89.13126154 79.65749863 87.06005024 77.97459565 84.8125 76.3125 C83.55173709 75.35242113 82.29266019 74.39012476 81.03515625 73.42578125 C80.08406982 72.6980249 80.08406982 72.6980249 79.11376953 71.95556641 C76.25292261 69.72130267 73.50148862 67.36664431 70.75 65 C65.8573528 60.81053654 60.85822389 56.79150837 55.76831055 52.84472656 C51.69863693 49.67599873 47.72416809 46.40915686 43.77099609 43.09643555 C36.91571999 37.36501247 30.16628712 31.73111898 22.25 27.5 C21.48945313 27.07074219 20.72890625 26.64148438 19.9453125 26.19921875 C9.78156568 21.47453772 -5.36698725 21.366502 -16.03515625 24.60546875 C-23.17605381 27.50378734 -28.9579907 31.49542399 -34.75 36.5 C-36.73529317 38.14958449 -38.72860987 39.78917905 -40.72241211 41.4284668 C-42.20678662 42.64911247 -43.68935603 43.87195635 -45.17016602 45.09692383 C-49.7282314 48.8633226 -54.33196313 52.5585651 -59 56.1875 C-63.58774648 59.75632859 -68.07702968 63.41628786 -72.5 67.1875 C-76.45186034 70.55516189 -80.41225206 73.90724056 -84.4375 77.1875 C-85.22511719 77.83074219 -86.01273438 78.47398437 -86.82421875 79.13671875 C-88.75 80.5 -88.75 80.5 -90.75 80.5 C-90.75 81.16 -90.75 81.82 -90.75 82.5 C-91.3996875 83.0878125 -91.3996875 83.0878125 -92.0625 83.6875 C-96.30328892 88.24242143 -98.13563601 95.07658738 -98.0234375 101.19140625 C-96.16924461 116.8460919 -82.11239273 125.53172991 -70.75 134.5 C-69.08239196 135.83215577 -67.41556257 137.16528772 -65.75 138.5 C-64.98558594 139.10972656 -64.22117188 139.71945313 -63.43359375 140.34765625 C-59.88151003 143.19656182 -56.34648324 146.06618987 -52.8125 148.9375 C-52.12075684 149.49904785 -51.42901367 150.0605957 -50.71630859 150.63916016 C-47.67616285 153.10968314 -44.64020995 155.58420994 -41.62890625 158.08984375 C-32.44380097 165.71152686 -24.26262981 171.93702305 -12.75 175.5 C-11.76 175.83 -10.77 176.16 -9.75 176.5 C10.28590479 177.76520724 24.47648223 172.78157151 39.6484375 159.70703125 C44.48771525 155.60163797 44.48771525 155.60163797 48.0625 155.125 C52.0731257 155.59683832 54.11418802 157.00560411 57.25 159.5 C59.73723514 163.23085271 59.87070249 166.17991065 59.25 170.5 C53.96589649 182.32632691 37.49349949 190.99249071 26.125 195.875 C11.49298676 201.13228934 -7.10110445 202.03508757 -21.75 196.5 C-22.64460938 196.2215625 -23.53921875 195.943125 -24.4609375 195.65625 C-35.43774464 192.08955636 -43.89457176 185.59044001 -52.5859375 178.16796875 C-55.87633427 175.36545839 -59.2733581 172.71176861 -62.6875 170.0625 C-67.94511055 165.9698664 -73.06584977 161.74526944 -78.13208008 157.41870117 C-82.91941156 153.33506563 -87.82423853 149.41415169 -92.75 145.5 C-107.18753034 133.98601949 -117.04973135 124.31492535 -120.75 105.5 C-122.14199692 92.92510644 -119.00771706 81.76525738 -111.75 71.5 C-111.14091797 70.61441406 -111.14091797 70.61441406 -110.51953125 69.7109375 C-106.3909866 64.35018106 -100.80528786 60.48999923 -95.48046875 56.40234375 C-91.89674514 53.64083963 -88.43650862 50.75412679 -85 47.8125 C-80.56922395 44.0288123 -76.08804832 40.32737266 -71.51953125 36.7109375 C-69.37844307 35.0016908 -67.25355253 33.27794902 -65.13671875 31.5390625 C-26.54612513 -0.14448837 -26.54612513 -0.14448837 0 0 Z " fill="#1985D7" transform="translate(249.75,109.5)"/>
<path d="M0 0 C0.86625 0.2784375 1.7325 0.556875 2.625 0.84375 C13.35072211 4.73182427 21.9605442 11.59264768 30.484375 18.9765625 C34.24055123 22.22750958 38.07931557 25.37124199 41.9375 28.5 C42.61167969 29.04720703 43.28585937 29.59441406 43.98046875 30.15820312 C48.34847072 33.69200894 52.75655355 37.17063737 57.1875 40.625 C63.95035833 45.90173724 70.49414406 51.41107678 77 57 C77.78503906 57.66 78.57007813 58.32 79.37890625 59 C89.14001786 67.29787097 96.46654401 76.90173009 98 90 C99.07455433 103.79651003 95.77933556 117.26226524 86.875 128.0625 C82.84851306 132.39075791 78.29600184 136.02304201 73.66308594 139.67822266 C71.16530297 141.66339544 68.69967867 143.68745496 66.22949219 145.70678711 C59.90409152 150.87434602 53.52208744 155.95933799 47.07666016 160.97607422 C43.14797053 164.05133226 39.34254212 167.24472345 35.5625 170.5 C24.93214066 179.57485541 14.2512693 188.09561563 1 193 C0.29866943 193.26562744 -0.40266113 193.53125488 -1.12524414 193.80493164 C-8.35200542 196.28791233 -15.22006119 196.48261984 -22.8125 196.4375 C-23.99392578 196.45748047 -25.17535156 196.47746094 -26.39257812 196.49804688 C-46.49634414 196.48703111 -61.20083401 187.15930798 -76.01269531 174.65625 C-79.03623308 172.13638757 -82.14042032 169.72470911 -85.25 167.3125 C-90.63969644 163.10736889 -95.91118931 158.78493878 -101.1484375 154.390625 C-103.85728458 152.11964635 -106.57920091 149.86646651 -109.3125 147.625 C-110.20195312 146.8928125 -111.09140625 146.160625 -112.0078125 145.40625 C-114.23108148 143.61834701 -116.46813419 141.87703085 -118.7421875 140.15625 C-131.4213626 130.48115612 -140.35908675 120.12046071 -143.61328125 103.953125 C-144.59658455 96.44426344 -144.9358163 89.65017237 -141 83 C-138.17922795 79.94416361 -136.6920537 79.10066236 -132.5625 78.5 C-128.34863154 79.09142013 -126.24685997 80.28169863 -123 83 C-120.71780752 86.41568141 -120.87464996 89.15594921 -121.0625 93.1875 C-121.16294479 102.16726393 -119.4851436 108.25891506 -113.26171875 114.84765625 C-105.69695748 122.04659141 -97.4688962 128.47121714 -89.23217773 134.87426758 C-85.23801619 137.99029974 -81.34777637 141.20541831 -77.5 144.5 C-56.58953156 162.36761054 -40.5661419 174.94497505 -12 173 C-7.89359934 172.24091035 -4.63783497 171.0243766 -1 169 C-0.14148438 168.53722656 0.71703125 168.07445312 1.6015625 167.59765625 C8.50713403 163.52794623 14.38193721 158.38064599 20.3828125 153.12109375 C23.89144077 150.06124351 27.51196981 147.16838746 31.1875 144.3125 C36.18176 140.42769438 41.11738018 136.48619253 46 132.4609375 C48.34503469 130.53727623 50.69935335 128.62778169 53.0625 126.7265625 C53.77486816 126.15212402 54.48723633 125.57768555 55.22119141 124.98583984 C56.62269946 123.85630887 58.02593257 122.72891387 59.43115234 121.60400391 C66.12897261 116.19620809 72.0793215 111.08214859 74.75 102.625 C75.60170678 93.68207885 74.93726727 87.34369187 69 80.125 C64.94382609 75.71464874 60.37176288 72.03566204 55.67626953 68.33056641 C52.42629024 65.75084209 49.21748459 63.12004357 46 60.5 C44.61726605 59.3775074 43.23445484 58.25510996 41.8515625 57.1328125 C38.6829674 54.55861922 35.52718356 51.96927497 32.375 49.375 C26.53644624 44.5972045 20.63211767 39.90757728 14.66503906 35.29150391 C13.1321173 34.10247808 11.6085642 32.90139988 10.0859375 31.69921875 C-3.3212125 21.44101032 -16.4724607 18.57697248 -33 20 C-44.34355794 21.94951156 -52.94184665 28.70082621 -61.5 35.9375 C-64.49270578 38.40648227 -66.49530131 38.92381907 -70.3125 39.5 C-74.16298406 38.97790047 -74.86265987 38.70445682 -77.4375 36.0625 C-80.12340589 32.50295268 -80.67543048 29.60383747 -80.69921875 25.2109375 C-79.65142843 21.89781279 -77.55252909 20.31011013 -75 18 C-74.13503906 17.19820312 -73.27007812 16.39640625 -72.37890625 15.5703125 C-52.38659213 -1.78778547 -25.55983733 -8.23594759 0 0 Z " fill="#1885D7" transform="translate(273,194)"/>
</svg>
